<svg width="35" height="34" viewBox="0 0 35 34" fill="none" xmlns="http://www.w3.org/2000/svg">
<path d="M4.35197 15.4555H9.13362C8.96584 14.3929 8.64427 13.4003 8.1689 12.4775C7.69353 11.5547 7.09233 10.7298 6.3653 10.0028C5.86196 10.8137 5.43553 11.6736 5.08599 12.5824C4.73646 13.4911 4.49178 14.4489 4.35197 15.4555ZM26.2469 15.4555H31.0285C30.8887 14.4489 30.6441 13.4911 30.2945 12.5824C29.945 11.6736 29.5185 10.8137 29.0152 10.0028C28.2882 10.7298 27.687 11.5547 27.2116 12.4775C26.7362 13.4003 26.4147 14.3929 26.2469 15.4555ZM6.3653 24.2638C7.09233 23.5368 7.69353 22.7119 8.1689 21.7891C8.64427 20.8664 8.96584 19.8737 9.13362 18.8111H4.35197C4.49178 19.8177 4.73646 20.7755 5.08599 21.6843C5.43553 22.5931 5.86196 23.4529 6.3653 24.2638ZM29.0152 24.2638C29.5185 23.4529 29.945 22.5931 30.2945 21.6843C30.6441 20.7755 30.8887 19.8177 31.0285 18.8111H26.2469C26.4147 19.8737 26.7362 20.8664 27.2116 21.7891C27.687 22.7119 28.2882 23.5368 29.0152 24.2638ZM12.5731 15.4555H16.0125V3.79502C14.5305 4.01873 13.1533 4.43118 11.881 5.03238C10.6087 5.63358 9.46917 6.42353 8.46251 7.40223C9.55306 8.46482 10.4549 9.67422 11.1679 11.0304C11.881 12.3866 12.3493 13.8617 12.5731 15.4555ZM19.368 15.4555H22.8075C23.0312 13.8617 23.4995 12.3866 24.2126 11.0304C24.9256 9.67422 25.8275 8.46482 26.918 7.40223C25.9113 6.42353 24.7719 5.63358 23.4995 5.03238C22.2272 4.43118 20.8501 4.01873 19.368 3.79502V15.4555ZM16.0125 30.4716V18.8111H12.5731C12.3493 20.405 11.881 21.88 11.1679 23.2362C10.4549 24.5924 9.55306 25.8018 8.46251 26.8644C9.46917 27.8431 10.6087 28.633 11.881 29.2342C13.1533 29.8354 14.5305 30.2479 16.0125 30.4716ZM19.368 30.4716C20.8501 30.2479 22.2272 29.8354 23.4995 29.2342C24.7719 28.633 25.9113 27.8431 26.918 26.8644C25.8275 25.8018 24.9256 24.5924 24.2126 23.2362C23.4995 21.88 23.0312 20.405 22.8075 18.8111H19.368V30.4716ZM17.6903 33.911C15.3693 33.911 13.1882 33.4706 11.1469 32.5898C9.10566 31.709 7.33001 30.5135 5.82002 29.0035C4.31002 27.4936 3.11461 25.7179 2.23378 23.6766C1.35295 21.6353 0.912537 19.4542 0.912537 17.1333C0.912537 14.8124 1.35295 12.6313 2.23378 10.59C3.11461 8.54871 4.31002 6.77307 5.82002 5.26307C7.33001 3.75308 9.10566 2.55767 11.1469 1.67684C13.1882 0.796006 15.3693 0.355591 17.6903 0.355591C20.0112 0.355591 22.1923 0.796006 24.2336 1.67684C26.2749 2.55767 28.0505 3.75308 29.5605 5.26307C31.0705 6.77307 32.2659 8.54871 33.1467 10.59C34.0276 12.6313 34.468 14.8124 34.468 17.1333C34.468 19.4542 34.0276 21.6353 33.1467 23.6766C32.2659 25.7179 31.0705 27.4936 29.5605 29.0035C28.0505 30.5135 26.2749 31.709 24.2336 32.5898C22.1923 33.4706 20.0112 33.911 17.6903 33.911Z" fill="white"/>
</svg>
