<svg width="34" height="34" viewBox="0 0 34 34" fill="none" xmlns="http://www.w3.org/2000/svg">
<path d="M14.0094 29.8643L14.5127 27.5155C14.5966 27.1519 14.7714 26.8513 15.037 26.6137C15.3027 26.376 15.6312 26.2292 16.0227 26.1732L21.2238 25.7538C21.5873 25.6979 21.9229 25.7678 22.2305 25.9635C22.5381 26.1593 22.7618 26.4249 22.9016 26.7605L23.5727 28.3543C24.6632 27.7112 25.6419 26.9352 26.5088 26.0264C27.3756 25.1176 28.1027 24.104 28.6899 22.9855L28.1866 22.7338C27.879 22.5101 27.6553 22.2375 27.5155 21.9159C27.3756 21.5943 27.3477 21.2518 27.4316 20.8883L28.606 15.7711C28.6899 15.4355 28.8647 15.1559 29.1303 14.9322C29.396 14.7085 29.6966 14.5687 30.0321 14.5127C29.8923 13.8137 29.7175 13.1356 29.5078 12.4784C29.2981 11.8213 29.0255 11.1851 28.6899 10.57C28.4382 10.7098 28.1656 10.7727 27.872 10.7587C27.5784 10.7447 27.3197 10.6539 27.096 10.4861L22.6499 7.80164C22.3423 7.6059 22.1186 7.34025 21.9788 7.0047C21.839 6.66914 21.811 6.31961 21.8949 5.95609L22.2305 4.52998C21.3636 4.1385 20.4758 3.84489 19.567 3.64915C18.6582 3.45341 17.7285 3.35554 16.7777 3.35554C16.3862 3.35554 15.9808 3.37652 15.5613 3.41846C15.1419 3.4604 14.7364 3.52332 14.345 3.60721L15.6033 6.45942C15.7431 6.79498 15.778 7.14451 15.7081 7.50803C15.6382 7.87155 15.4635 8.16516 15.1838 8.38886L11.2411 11.8283C10.9614 12.08 10.6329 12.2198 10.2554 12.2477C9.87788 12.2757 9.53534 12.1918 9.22775 11.9961L5.36887 9.64719C4.72572 10.7098 4.22938 11.8493 3.87985 13.0656C3.53031 14.282 3.35554 15.5194 3.35554 16.7777C3.35554 17.2251 3.41147 17.9522 3.52332 18.9588L7.21442 18.6233C7.6059 18.5673 7.96243 18.6303 8.284 18.812C8.60557 18.9938 8.83627 19.2664 8.97608 19.6299L10.9894 24.4116C11.1292 24.7471 11.1642 25.0967 11.0943 25.4602C11.0244 25.8237 10.8496 26.1173 10.57 26.341L8.97608 27.6832C9.73108 28.2425 10.535 28.7039 11.3879 29.0674C12.2407 29.4309 13.1146 29.6966 14.0094 29.8643ZM17.0294 22.6499C16.6659 22.7058 16.3303 22.6359 16.0227 22.4402C15.7151 22.2445 15.4914 21.9788 15.3516 21.6433L13.0866 16.4422C12.9468 16.1066 12.9258 15.7571 13.0237 15.3936C13.1216 15.03 13.3103 14.7364 13.59 14.5127L17.8683 10.9055C18.1199 10.6539 18.4275 10.514 18.791 10.4861C19.1546 10.4581 19.4901 10.542 19.7977 10.7377L24.4955 13.5061C24.8031 13.7018 25.0407 13.9675 25.2085 14.303C25.3763 14.6386 25.4182 14.9881 25.3344 15.3516L23.9921 20.8044C23.9083 21.1679 23.7405 21.4685 23.4888 21.7062C23.2371 21.9439 22.9296 22.0907 22.566 22.1466L17.0294 22.6499ZM16.7777 33.5554C14.4568 33.5554 12.2757 33.115 10.2344 32.2342C8.19312 31.3534 6.41748 30.158 4.90748 28.648C3.39749 27.138 2.20208 25.3623 1.32125 23.321C0.440415 21.2797 0 19.0986 0 16.7777C0 14.4568 0.440415 12.2757 1.32125 10.2344C2.20208 8.19312 3.39749 6.41748 4.90748 4.90748C6.41748 3.39749 8.19312 2.20208 10.2344 1.32125C12.2757 0.440415 14.4568 0 16.7777 0C19.0986 0 21.2797 0.440415 23.321 1.32125C25.3623 2.20208 27.138 3.39749 28.648 4.90748C30.158 6.41748 31.3534 8.19312 32.2342 10.2344C33.115 12.2757 33.5554 14.4568 33.5554 16.7777C33.5554 19.0986 33.115 21.2797 32.2342 23.321C31.3534 25.3623 30.158 27.138 28.648 28.648C27.138 30.158 25.3623 31.3534 23.321 32.2342C21.2797 33.115 19.0986 33.5554 16.7777 33.5554Z" fill="white"/>
</svg>
