<?xml version="1.0" encoding="UTF-8"?><svg id="Capa_2" xmlns="http://www.w3.org/2000/svg" viewBox="0 0 115.26 115.5"><g id="Capa_1-2"><path d="M103.26,0h-53c-6.6,0-12,5.4-12,12v26.51c.08,0,.16,0,.24,0,21.26,0,38.5,17.24,38.5,38.5h26.26c6.6,0,12-5.4,12-12V12c0-6.6-5.4-12-12-12Z" fill="#cdb9f8" stroke-width="0"/><path d="M38.26,73.33v-34.83C16.71,38.64-.65,56.48.02,78.21c.6,19.59,16.19,35.84,35.75,37.19,22.5,1.55,41.23-16.24,41.23-38.41h-35.07c-2.02,0-3.67-1.65-3.67-3.67Z" fill="#cdb9f8" stroke-width="0"/></g></svg>