<?xml version="1.0" encoding="UTF-8"?><svg id="Capa_2" xmlns="http://www.w3.org/2000/svg" viewBox="0 0 346.92 115.5"><g id="Capa_1-2"><path d="M4.99,18.33c-2.69,0-4.99-2.09-4.99-4.79,0-2.89,2.29-5.08,4.99-5.08h42.27c2.69,0,4.99,2.19,4.99,5.08,0,2.69-2.29,4.79-4.99,4.79h-15.85v53.94c0,2.89-2.39,5.38-5.48,5.38-2.79,0-5.08-2.49-5.08-5.38V18.33H4.99Z" fill="#fff" stroke-width="0"/><path d="M93.32,72.47c0,2.79-2.29,5.18-5.28,5.18-2.79,0-4.99-2.39-4.99-5.18v-2.29c-2.69,5.38-9.07,7.98-14.26,7.98-11.27,0-17.75-7.28-17.75-20.44v-22.43c0-2.79,2.29-5.18,5.28-5.18,2.79,0,4.99,2.39,4.99,5.18v21.24c0,7.38,3.79,11.56,9.77,11.56s11.96-3.29,11.96-12.46v-20.34c0-2.79,2.29-5.18,5.28-5.18,2.79,0,4.99,2.39,4.99,5.18v37.19Z" fill="#fff" stroke-width="0"/><path d="M117.35,60.4v12.06c0,2.47-1.8,4.63-4.28,5.09-3.14.58-5.98-2.04-5.98-5.24v-39c0-.68.32-1.34.87-1.74,4.71-3.47,9.4-.29,9.4,3.7v5.37c0,.11.15.12.18.02,2.44-7.84,6.94-11.07,12.58-11.07,1.5,0,2.99.1,4.39.4,2.59.6,4.29,3.19,3.69,5.88-.9,4.49-5.38,3.39-8.38,3.39-8.77,0-12.46,8.77-12.46,21.14Z" fill="#fff" stroke-width="0"/><path d="M146.07,35.28c0-2.79,2.29-5.18,5.28-5.18,2.79,0,4.99,2.39,4.99,5.18v2.29c2.69-5.38,9.07-7.98,14.26-7.98,11.27,0,17.75,7.28,17.75,20.44v22.43c0,2.79-2.29,5.18-5.28,5.18-2.79,0-4.98-2.39-4.98-5.18v-21.24c0-7.38-3.79-11.57-9.77-11.57s-11.96,3.29-11.96,12.46v20.34c0,2.79-2.29,5.18-5.28,5.18-2.79,0-4.99-2.39-4.99-5.18v-37.19Z" fill="#fff" stroke-width="0"/><path d="M206.79,5.27c3.79,0,6.78,2.79,6.78,6.48s-2.99,6.48-6.78,6.48-6.88-2.79-6.88-6.48,3.19-6.48,6.88-6.48ZM211.97,35.28c0-2.79-2.29-5.18-5.28-5.18-2.79,0-4.99,2.39-4.99,5.18v37.19c0,2.79,2.19,5.18,4.99,5.18,2.99,0,5.28-2.39,5.28-5.18v-37.19Z" fill="#fff" stroke-width="0"/><path d="M334.92,0h-53c-6.6,0-12,5.4-12,12v26.51c.08,0,.16,0,.24,0,21.26,0,38.5,17.24,38.5,38.5h26.26c6.6,0,12-5.4,12-12V12c0-6.6-5.4-12-12-12Z" fill="#fff" stroke-width="0"/><path d="M269.92,73.33v-34.83c-21.55.13-38.91,17.97-38.24,39.71.6,19.59,16.19,35.84,35.75,37.19,22.5,1.55,41.23-16.24,41.23-38.41h-35.07c-2.02,0-3.67-1.65-3.67-3.67Z" fill="#fff" stroke-width="0"/></g></svg>