<svg width="34" height="34" viewBox="0 0 34 34" fill="none" xmlns="http://www.w3.org/2000/svg">
<path d="M6.39554 25.1866C7.65387 24.2079 8.63956 23.0195 9.35261 21.6214C10.0657 20.2232 10.4222 18.7272 10.4222 17.1333C10.4222 15.5394 10.0657 14.0434 9.35261 12.6453C8.63956 11.2471 7.65387 10.0587 6.39554 9.08C5.52869 10.2544 4.86457 11.5268 4.40319 12.8969C3.9418 14.2671 3.7111 15.6792 3.7111 17.1333C3.7111 18.5874 3.9418 19.9995 4.40319 21.3697C4.86457 22.7399 5.52869 24.0122 6.39554 25.1866ZM17.1333 30.5555C18.6712 30.5555 20.1603 30.3108 21.6003 29.8215C23.0404 29.3321 24.3477 28.5981 25.5221 27.6194C23.9283 26.3331 22.6909 24.7742 21.8101 22.9426C20.9292 21.111 20.4888 19.1746 20.4888 17.1333C20.4888 15.092 20.9292 13.1556 21.8101 11.324C22.6909 9.49246 23.9283 7.93353 25.5221 6.64724C24.3477 5.66854 23.0404 4.93451 21.6003 4.44516C20.1603 3.95581 18.6712 3.71113 17.1333 3.71113C15.5953 3.71113 14.1063 3.95581 12.6662 4.44516C11.2261 4.93451 9.91886 5.66854 8.74442 6.64724C10.3383 7.93353 11.5757 9.49246 12.4565 11.324C13.3373 13.1556 13.7777 15.092 13.7777 17.1333C13.7777 19.1746 13.3373 21.111 12.4565 22.9426C11.5757 24.7742 10.3383 26.3331 8.74442 27.6194C9.91886 28.5981 11.2261 29.3321 12.6662 29.8215C14.1063 30.3108 15.5953 30.5555 17.1333 30.5555ZM27.871 25.1866C28.7379 24.0122 29.402 22.7399 29.8634 21.3697C30.3248 19.9995 30.5555 18.5874 30.5555 17.1333C30.5555 15.6792 30.3248 14.2671 29.8634 12.8969C29.402 11.5268 28.7379 10.2544 27.871 9.08C26.6127 10.0587 25.627 11.2471 24.9139 12.6453C24.2009 14.0434 23.8444 15.5394 23.8444 17.1333C23.8444 18.7272 24.2009 20.2232 24.9139 21.6214C25.627 23.0195 26.6127 24.2079 27.871 25.1866ZM17.1333 33.911C14.8124 33.911 12.6313 33.4706 10.59 32.5898C8.54868 31.709 6.77304 30.5135 5.26304 29.0035C3.75305 27.4936 2.55764 25.7179 1.67681 23.6766C0.795975 21.6353 0.35556 19.4542 0.35556 17.1333C0.35556 14.8124 0.795975 12.6313 1.67681 10.59C2.55764 8.54871 3.75305 6.77307 5.26304 5.26307C6.77304 3.75308 8.54868 2.55767 10.59 1.67684C12.6313 0.796006 14.8124 0.355591 17.1333 0.355591C19.4542 0.355591 21.6353 0.796006 23.6766 1.67684C25.7179 2.55767 27.4935 3.75308 29.0035 5.26307C30.5135 6.77307 31.7089 8.54871 32.5898 10.59C33.4706 12.6313 33.911 14.8124 33.911 17.1333C33.911 19.4542 33.4706 21.6353 32.5898 23.6766C31.7089 25.7179 30.5135 27.4936 29.0035 29.0035C27.4935 30.5135 25.7179 31.709 23.6766 32.5898C21.6353 33.4706 19.4542 33.911 17.1333 33.911Z" fill="white"/>
</svg>
