<svg width="32" height="35" viewBox="0 0 32 35" fill="none" xmlns="http://www.w3.org/2000/svg">
<path d="M2.92085 31.381C2.27053 32.0313 1.21759 32.036 0.561535 31.3914V31.3914C-0.102783 30.7388 -0.107513 29.6697 0.551002 29.0111L6.23441 23.3277C7.10126 22.4609 7.69547 21.3773 8.01704 20.0771C8.33861 18.7768 8.4994 16.7844 8.4994 14.1C8.4994 12.4782 8.86292 10.8843 9.58995 9.31835C10.317 7.75243 11.3516 6.29836 12.6938 4.95614C15.2385 2.41152 18.0487 0.971432 21.1246 0.635878C24.2005 0.300324 26.7312 1.15319 28.7166 3.19448C30.7299 5.20781 31.5688 7.75243 31.2332 10.8283C30.8977 13.9043 29.4716 16.7005 26.9549 19.2172C25.6127 20.5594 24.1586 21.594 22.5927 22.3211C21.0268 23.0481 19.4329 23.4116 17.811 23.4116C15.0986 23.4116 13.1133 23.5654 11.8549 23.873C10.5966 24.1806 9.52004 24.7818 8.62523 25.6766L2.92085 31.381ZM13.2811 18.5461C14.5953 19.8324 16.3709 20.3078 18.608 19.9722C20.845 19.6366 22.8443 18.588 24.606 16.8264C26.3956 15.0368 27.4652 13.0304 27.8148 10.8074C28.1643 8.58432 27.6819 6.84363 26.3677 5.5853C25.0255 4.24309 23.2708 3.73976 21.1037 4.07531C18.9365 4.41086 16.9442 5.47345 15.1266 7.26308C13.3649 9.02474 12.2954 11.0171 11.9179 13.2401C11.5404 15.4632 11.9948 17.2318 13.2811 18.5461ZM26.1999 34.2333C27.1227 34.2333 27.9126 33.9047 28.5697 33.2476C29.2269 32.5904 29.5554 31.8005 29.5554 30.8777C29.5554 30.6644 29.5028 30.4231 29.4218 30.1781C29.0293 28.9909 28.174 27.8699 26.9527 27.6014C26.7124 27.5486 26.4615 27.5222 26.1999 27.5222C25.2771 27.5222 24.4872 27.8507 23.83 28.5079C23.1729 29.165 22.8444 29.9549 22.8444 30.8777C22.8444 31.8005 23.1729 32.5904 23.83 33.2476C24.4872 33.9047 25.2771 34.2333 26.1999 34.2333Z" fill="white"/>
</svg>
