<svg width="35" height="34" viewBox="0 0 35 34" fill="none" xmlns="http://www.w3.org/2000/svg">
<path d="M30.1721 12.5056C29.3053 10.0729 27.8932 8.03856 25.9357 6.40273C23.9783 4.7669 21.7273 3.78121 19.1827 3.44566V6.13009L30.1721 12.5056ZM10.7939 18.7134L15.8272 15.7773V3.44566C14.9324 3.52955 14.0655 3.73228 13.2266 4.05385C12.3877 4.37542 11.5768 4.75991 10.7939 5.20732V18.7134ZM5.17332 21.985L7.43831 20.6428V7.97564C6.34776 9.20601 5.51587 10.5762 4.94263 12.0862C4.36939 13.5962 4.08277 15.1621 4.08277 16.7839C4.08277 17.6788 4.17365 18.5666 4.35541 19.4474C4.53717 20.3282 4.8098 21.1741 5.17332 21.985ZM10.7939 28.3606L22.5383 21.6495L17.5049 18.7134L6.85109 24.9211C7.41035 25.6202 8.01155 26.2634 8.6547 26.8506C9.29784 27.4378 10.0109 27.9411 10.7939 28.3606ZM17.5049 30.2061C19.6022 30.2061 21.5875 29.7308 23.461 28.78C25.3345 27.8293 26.9005 26.515 28.1588 24.8372L25.8938 23.5789L14.8205 29.9545C15.2679 30.0383 15.7153 30.1013 16.1627 30.1432C16.6101 30.1851 17.0575 30.2061 17.5049 30.2061ZM29.8366 21.985C30.2001 21.1741 30.4727 20.3282 30.6545 19.4474C30.8362 18.5666 30.9271 17.6788 30.9271 16.7839L19.1827 9.98897V15.7773L29.8366 21.985ZM17.5049 33.5617C15.184 33.5617 13.0029 33.1212 10.9616 32.2404C8.92035 31.3596 7.1447 30.1642 5.63471 28.6542C4.12471 27.1442 2.9293 25.3685 2.04847 23.3273C1.16764 21.286 0.727226 19.1049 0.727226 16.7839C0.727226 14.463 1.16764 12.2819 2.04847 10.2406C2.9293 8.19934 4.12471 6.4237 5.63471 4.91371C7.1447 3.40371 8.92035 2.2083 10.9616 1.32747C13.0029 0.446641 15.184 0.00622559 17.5049 0.00622559C19.8259 0.00622559 22.007 0.446641 24.0483 1.32747C26.0895 2.2083 27.8652 3.40371 29.3752 4.91371C30.8852 6.4237 32.0806 8.19934 32.9614 10.2406C33.8422 12.2819 34.2827 14.463 34.2827 16.7839C34.2827 19.1049 33.8422 21.286 32.9614 23.3273C32.0806 25.3685 30.8852 27.1442 29.3752 28.6542C27.8652 30.1642 26.0895 31.3596 24.0483 32.2404C22.007 33.1212 19.8259 33.5617 17.5049 33.5617Z" fill="white"/>
</svg>
