<svg width="35" height="33" viewBox="0 0 35 33" fill="none" xmlns="http://www.w3.org/2000/svg">
<path d="M7.38889 33C6.41667 33 5.59028 32.6391 4.90972 31.9172C4.22917 31.1953 3.88889 30.3188 3.88889 29.2875C3.88889 28.5656 4.08333 27.8867 4.47222 27.2508C4.86111 26.6148 5.37963 26.1594 6.02778 25.8844L12.7985 23.0301C13.2909 22.8225 13.6111 22.34 13.6111 21.8056V21.8056C13.6111 20.5527 11.9499 19.9274 10.9914 20.7344C9.91254 21.6428 8.7522 22.4055 7.51042 23.0227C5.79511 23.8751 3.97769 24.4121 2.05816 24.6335C0.926575 24.764 0 23.8266 0 22.6875V22.6875C0 21.5484 0.928678 20.6444 2.05538 20.4769C3.46498 20.2673 4.78101 19.8354 6.00347 19.1812C7.80208 18.2187 9.43056 16.8437 10.8889 15.0562L13.5139 11.7562C13.9028 11.275 14.3565 10.9141 14.875 10.6734C15.3935 10.4328 15.9444 10.3125 16.5278 10.3125H18.4722C19.0556 10.3125 19.6065 10.4328 20.125 10.6734C20.6435 10.9141 21.0972 11.275 21.4861 11.7562L24.1111 15.0562C25.5694 16.8437 27.1979 18.2187 28.9965 19.1812C30.219 19.8354 31.535 20.2673 32.9446 20.4769C34.0713 20.6444 35 21.5484 35 22.6875V22.6875C35 23.8266 34.0734 24.764 32.9418 24.6335C31.0223 24.4121 29.2049 23.8751 27.4896 23.0227C26.2478 22.4055 25.0875 21.6428 24.0086 20.7344C23.0501 19.9274 21.3889 20.5527 21.3889 21.8056V21.8056C21.3889 22.34 21.7091 22.8225 22.2015 23.0301L28.9722 25.8844C29.6204 26.1594 30.1389 26.6148 30.5278 27.2508C30.9167 27.8867 31.1111 28.5656 31.1111 29.2875C31.1111 30.3188 30.7708 31.1953 30.0903 31.9172C29.4097 32.6391 28.5833 33 27.6111 33H14.6424C14.0728 33 13.6111 32.5383 13.6111 31.9688V31.9688C13.6111 31.075 13.8866 30.3359 14.4375 29.7516C14.9884 29.1672 15.6852 28.875 16.5278 28.875H22.3611C22.6528 28.875 22.8877 28.7805 23.066 28.5914C23.2442 28.4023 23.3333 28.1531 23.3333 27.8438C23.3333 27.5344 23.2442 27.2852 23.066 27.0961C22.8877 26.907 22.6528 26.8125 22.3611 26.8125H16.5278C15.1667 26.8125 14.0162 27.3109 13.0764 28.3078C12.1366 29.3047 11.6667 30.525 11.6667 31.9688V31.9688C11.6667 32.5383 11.205 33 10.6354 33H7.38889ZM17.5 8.25C16.4306 8.25 15.515 7.84609 14.7535 7.03828C13.9919 6.23047 13.6111 5.25937 13.6111 4.125C13.6111 2.99063 13.9919 2.01953 14.7535 1.21172C15.515 0.403906 16.4306 0 17.5 0C18.5694 0 19.485 0.403906 20.2465 1.21172C21.0081 2.01953 21.3889 2.99063 21.3889 4.125C21.3889 5.25937 21.0081 6.23047 20.2465 7.03828C19.485 7.84609 18.5694 8.25 17.5 8.25Z" fill="white"/>
</svg>
